<svg xmlns="http://www.w3.org/2000/svg" viewBox="0 0 23.22 32"><title>ics-file-format-symbol</title><path d="M27.6,7.67a0.62,0.62,0,0,0-.15-0.41l-6.17-7h0a0.63,0.63,0,0,0-.12-0.1l0,0L21,0h0L20.81,0H5.65A1.26,1.26,0,0,0,4.39,1.25V30.75A1.26,1.26,0,0,0,5.65,32H26.35a1.26,1.26,0,0,0,1.25-1.25v-23A0.7,0.7,0,0,0,27.6,7.67ZM10.42,30.27H8.63V22.38h1.79v7.88h0ZM16,28.91a4.46,4.46,0,0,0,1.49-.26L17.75,30a5.08,5.08,0,0,1-2,.34c-2.73,0-4.13-1.7-4.13-3.94a4,4,0,0,1,4.31-4.19,4.65,4.65,0,0,1,1.94.35L17.48,24a3.85,3.85,0,0,0-1.5-.29,2.37,2.37,0,0,0-2.52,2.61A2.36,2.36,0,0,0,16,28.91Zm4.86,1.47a5.16,5.16,0,0,1-2.23-.48L19,28.43a4.55,4.55,0,0,0,2,.49c0.82,0,1.25-.34,1.25-0.85S21.84,27.3,20.89,27c-1.31-.46-2.16-1.18-2.16-2.33,0-1.35,1.12-2.37,3-2.37a4.83,4.83,0,0,1,2,.4l-0.4,1.44a3.75,3.75,0,0,0-1.65-.37,0.94,0.94,0,0,0-1.15.76c0,0.5.44,0.73,1.46,1.11,1.39,0.51,2,1.24,2,2.35C24,29.26,23,30.39,20.85,30.39ZM5.65,21.31V1.25H20.18V7.68a0.63,0.63,0,0,0,.63.63h5.54v13H5.65Z" transform="translate(-4.39)"/><path d="M21.61,7.21H20V6.08H19.14V7.21H17.58V6.08H16.79V7.21H15.28V6.08H14.49V7.21H12.86V6.08H12V7.21h-1.5V6.08H9.75V7.34a1.21,1.21,0,0,0-.68,1.09v8.82a1.22,1.22,0,0,0,1.22,1.22H21.61a1.22,1.22,0,0,0,1.22-1.22V8.43A1.22,1.22,0,0,0,21.61,7.21Zm0.24,10a0.24,0.24,0,0,1-.24.24H10.29A0.24,0.24,0,0,1,10,17.25v-8H21.85v8Z" transform="translate(-4.39)"/><rect x="10.48" y="9.9" width="1.76" height="1.77"/><rect x="13.49" y="9.9" width="1.76" height="1.77"/><rect x="7.55" y="12.43" width="1.76" height="1.76"/><rect x="10.48" y="12.43" width="1.76" height="1.76"/><rect x="13.49" y="12.43" width="1.76" height="1.76"/><rect x="7.55" y="14.96" width="1.76" height="1.76"/><rect x="10.48" y="14.96" width="1.76" height="1.76"/><rect x="13.49" y="14.96" width="1.76" height="1.76"/></svg>